<svg xmlns="http://www.w3.org/2000/svg" width="80" height="80" viewBox="0 0 80 80">
    <g fill="none" fill-rule="evenodd">
        <g>
            <g>
                <g>
                    <g>
                        <path d="M0 0H80V80H0z" transform="translate(-250 -2576) translate(0 2440) translate(90 110) translate(160 26)"/>
                        <g fill-rule="nonzero">
                            <g>
                                <g>
                                    <path fill="#B3C3E6" d="M0 0L9.717 0 9.717 52.229 0 52.229z" transform="translate(-250 -2576) translate(0 2440) translate(90 110) translate(160 26) translate(4.5 10) translate(28) matrix(-1 0 0 1 39.15 0)"/>
                                    <path fill="#D8E0F4" d="M9.717 10.932L19.434 10.932 19.434 52.229 9.717 52.229z" transform="translate(-250 -2576) translate(0 2440) translate(90 110) translate(160 26) translate(4.5 10) translate(28) matrix(-1 0 0 1 39.15 0)"/>
                                    <path fill="#F5F8FF" d="M19.434 21.863L29.151 21.863 29.151 52.229 19.434 52.229z" transform="translate(-250 -2576) translate(0 2440) translate(90 110) translate(160 26) translate(4.5 10) translate(28) matrix(-1 0 0 1 39.15 0)"/>
                                    <path fill="#DEE4F1" d="M29.151 32.795L38.868 32.795 38.868 52.229 29.151 52.229z" transform="translate(-250 -2576) translate(0 2440) translate(90 110) translate(160 26) translate(4.5 10) translate(28) matrix(-1 0 0 1 39.15 0)"/>
                                </g>
                                <path fill="#5C5C5C" d="M0.151 55L42.663 55 42.663 58 0.151 58z" transform="translate(-250 -2576) translate(0 2440) translate(90 110) translate(160 26) translate(4.5 10) translate(28)"/>
                            </g>
                            <g>
                                <path fill="#FFA400" d="M43.334 21.375v4.933c0 1.676-4.468 3.072-9.96 3.072-5.493 0-9.868-1.35-9.868-3.025v-.558l-.093-3.91h.046c.745 1.443 4.841 2.56 9.775 2.56S43.24 23.05 43.24 21.375h.093z" transform="translate(-250 -2576) translate(0 2440) translate(90 110) translate(160 26) translate(4.5 10) translate(0 30)"/>
                                <path fill="#FFC600" d="M33.094 3.036v4.887h-.093c0 1.722-4.608 3.072-10.054 3.072-2.094.046-4.235-.186-6.283-.698l-.094.093c-1.024-.838-2.187-1.49-3.444-1.908v-.094l-.14-5.166c.326 1.582 4.655 2.84 9.915 2.84 5.26 0 10.1-1.35 10.1-3.026h.093z" transform="translate(-250 -2576) translate(0 2440) translate(90 110) translate(160 26) translate(4.5 10) translate(0 30)"/>
                                <path fill="#FFE127" d="M33.094 3.129c0 1.675-4.608 3.025-10.1 3.025-5.493 0-9.635-1.256-9.96-2.839 0-.047-.047-.14-.047-.186 0-1.676 4.468-3.072 10.007-3.072 5.539-.047 10.1 1.35 10.1 3.072z" transform="translate(-250 -2576) translate(0 2440) translate(90 110) translate(160 26) translate(4.5 10) translate(0 30)"/>
                                <path fill="#FFC600" d="M23.46 21.887l-.047-1.024-.093-4.19c.325 1.583 4.654 2.84 9.914 2.84s9.914-1.35 10.054-2.98h.046v4.842h-.093c0 1.675-4.515 3.072-10.007 3.072-5.493 0-9.03-1.117-9.775-2.56z" transform="translate(-250 -2576) translate(0 2440) translate(90 110) translate(160 26) translate(4.5 10) translate(0 30)"/>
                                <path fill="#FFA400" d="M16.803 25.005c1.257-1.163 2.234-2.653 2.746-4.282h.233c1.024.093 2.048.14 3.165.14h.466v1.024l.093 3.91h-.512c-2.048.046-4.05-.187-6.051-.652l-.14-.14z" transform="translate(-250 -2576) translate(0 2440) translate(90 110) translate(160 26) translate(4.5 10) translate(0 30)"/>
                                <path fill="#FFC600" d="M23.46 16.301v.233l.092 4.329h-.465c-1.164 0-2.234-.047-3.258-.14h-.233c.326-.977.465-2.001.465-3.025 0-.699-.093-1.35-.232-2.002h.232c.978.093 1.955.14 3.026.14l.419.232c-.047.093-.047.187-.047.233z" transform="translate(-250 -2576) translate(0 2440) translate(90 110) translate(160 26) translate(4.5 10) translate(0 30)"/>
                                <path fill="#FFA400" d="M16.664 10.297c2.048.512 4.189.744 6.283.698 5.446 0 10.054-1.35 10.054-3.072h.093v5.492c-5.073 0-9.216 1.21-9.728 2.746l-.419-.232c-1.024 0-2.001-.047-2.932-.14h-.233c-.419-2.141-1.536-4.05-3.211-5.446l.093-.046z" transform="translate(-250 -2576) translate(0 2440) translate(90 110) translate(160 26) translate(4.5 10) translate(0 30)"/>
                                <g fill="#FFE127">
                                    <path d="M19.875 8.038c-.465-2.14-1.629-4.096-3.304-5.539-1.024-.93-2.235-1.582-3.538-1.955C12.103.22 11.078.08 10.101.08 4.56.032.047 4.454 0 9.993c-.047 5.539 4.375 10.054 9.914 10.1 2.56 0 4.98-.93 6.888-2.653 1.304-1.21 2.281-2.746 2.793-4.422.326-.977.465-1.955.465-2.979 0-.651-.186-1.35-.186-2zM43.288 8.69v.093c-.14 1.63-4.655 2.979-10.054 2.979-5.4 0-9.589-1.257-9.914-2.84V8.69c0-.093 0-.186.046-.28.512-1.535 4.655-2.746 9.728-2.746h.14c5.492 0 10.054 1.35 10.054 3.026z" transform="translate(-250 -2576) translate(0 2440) translate(90 110) translate(160 26) translate(4.5 10) translate(0 30) translate(0 7.75)"/>
                                </g>
                                <path fill="#FFA400" d="M10.1 16.58c-.837 0-1.535-.698-1.535-1.536 0-.837.698-1.536 1.536-1.536.838 0 1.536.699 1.536 1.536 0 .512.419.931.93.931.513 0 .932-.419.932-.93 0-1.49-1.024-2.84-2.467-3.259v-.372c0-.512-.42-.931-.931-.931-.512 0-.931.419-.931.93v.373c-1.49.373-2.514 1.722-2.467 3.258 0 1.862 1.536 3.398 3.398 3.398.838 0 1.536.698 1.536 1.536 0 .838-.698 1.536-1.536 1.536-.838 0-1.536-.698-1.536-1.536 0-.512-.42-.93-.931-.93-.512 0-.931.418-.931.93 0 1.536 1.024 2.84 2.467 3.258v.745c0 .512.419.931.93.931.513 0 .932-.419.932-.931v-.745c1.815-.512 2.839-2.42 2.28-4.235-.418-1.397-1.722-2.42-3.211-2.42z" transform="translate(-250 -2576) translate(0 2440) translate(90 110) translate(160 26) translate(4.5 10) translate(0 30)"/>
                            </g>
                        </g>
                    </g>
                </g>
            </g>
        </g>
    </g>
</svg>
