<svg xmlns="http://www.w3.org/2000/svg" width="80" height="80" viewBox="0 0 80 80">
    <g fill="none" fill-rule="evenodd">
        <g>
            <g>
                <g>
                    <g>
                        <path d="M0 0H80V80H0z" transform="translate(-680 -2576) translate(0 2440) translate(520 110) translate(160 26)"/>
                        <g fill-rule="nonzero">
                            <path fill="#F5F8FF" d="M39.673 0H8.233C3.684 0 0 3.683 0 8.234v46.41c0 4.55 3.683 8.233 8.234 8.233H35.6c-2.604-3.293-4.161-7.455-4.161-11.976 0-2.096.329-4.102.958-5.989.509-1.617 1.227-3.114 2.126-4.49 1.167-1.857 2.664-3.474 4.401-4.822 2.545-2.036 5.629-3.413 8.982-3.922V8.234C47.906 3.683 44.224 0 39.673 0z" transform="translate(-680 -2576) translate(0 2440) translate(520 110) translate(160 26) translate(5 5)"/>
                            <path fill="#DEE4F1" d="M23.953 0H8.233C3.684 0 0 3.683 0 8.234v46.41c0 4.55 3.683 8.233 8.234 8.233h15.72V0z" transform="translate(-680 -2576) translate(0 2440) translate(520 110) translate(160 26) translate(5 5)"/>
                            <path fill="#4ACC77" d="M11.228 38.924c-.575 0-1.15-.219-1.587-.659-.877-.877-.877-2.3 0-3.177l7.486-7.485c.715-.719 1.82-.868 2.7-.362l3.812 2.18 6.901-6.369c.914-.838 2.33-.784 3.174.126.842.913.785 2.332-.126 3.174l-8.108 7.485c-.718.665-1.784.787-2.638.3l-3.748-2.144-6.279 6.272c-.437.44-1.012.659-1.587.659z" transform="translate(-680 -2576) translate(0 2440) translate(520 110) translate(160 26) translate(5 5)"/>
                            <path fill="#4ACC77" d="M33.684 32.936c-.584 0-1.159-.228-1.587-.659l-7.485-7.485c-.644-.641-.835-1.608-.488-2.447.347-.838 1.168-1.386 2.075-1.386h7.485c1.24 0 2.246 1.006 2.246 2.246v7.485c0 .907-.548 1.728-1.386 2.075-.279.114-.57.17-.86.17z" transform="translate(-680 -2576) translate(0 2440) translate(520 110) translate(160 26) translate(5 5)"/>
                            <path fill="#7BD82F" d="M25.477 33.84c-.425.392-.973.596-1.524.596-.38 0-.766-.1-1.117-.3l-3.748-2.143-6.273 6.272c-.437.44-1.012.659-1.587.659s-1.15-.219-1.587-.659l8.264-8.264c.287-.287.67-.437 1.06-.437.254 0 .509.063.743.195l4.245 2.428 4.156-3.895 7.141-6.695c.42.407.68.976.68 1.608v7.485c0 .907-.548 1.728-1.39 2.075-.278.114-.568.17-.859.17-.584 0-1.156-.227-1.587-.658l-2.365-2.365z" transform="translate(-680 -2576) translate(0 2440) translate(520 110) translate(160 26) translate(5 5)"/>
                            <path fill="#B4C4E5" d="M50.9 35.93c8.255 0 14.971 6.716 14.971 14.97 0 3.319-1.085 6.388-2.919 8.873l8.252 8.251c.877.877.877 2.3 0 3.177-.44.44-1.015.659-1.59.659-.575 0-1.15-.219-1.587-.66l-8.251-8.25c-2.485 1.835-5.556 2.921-8.875 2.921-8.255 0-14.971-6.716-14.971-14.97 0-8.255 6.716-14.971 14.97-14.971zm0 4.491c-5.778 0-10.479 4.7-10.479 10.48 0 5.778 4.7 10.48 10.48 10.48 5.778 0 10.48-4.702 10.48-10.48 0-5.78-4.702-10.48-10.48-10.48z" transform="translate(-680 -2576) translate(0 2440) translate(520 110) translate(160 26) translate(5 5)"/>
                            <g fill="#97ABD6">
                                <path d="M23.845 22.765c-2.485 1.832-5.557 2.92-8.874 2.92C6.716 25.684 0 18.967 0 10.712 0 6.588 1.68 2.845 4.39.133l3.173 3.173c-1.895 1.898-3.072 4.518-3.072 7.407 0 5.78 4.701 10.48 10.48 10.48 2.89 0 5.509-1.177 7.407-3.072l.533.533 12.36 12.363c-.437.44-1.012.659-1.587.659s-1.15-.222-1.587-.66z" transform="translate(-680 -2576) translate(0 2440) translate(520 110) translate(160 26) translate(5 5) translate(35.93 40.187)"/>
                            </g>
                        </g>
                    </g>
                </g>
            </g>
        </g>
    </g>
</svg>
