<svg id="Layer_1" data-name="Layer 1" xmlns="http://www.w3.org/2000/svg" viewBox="0 0 697.71454 697.8658"><path d="M646.62643,53.36488a174.74675,174.74675,0,0,0-247.22627,0l-81.17267,81.17269a34.8661,34.8661,0,1,0,49.30811,49.30812L448.70828,102.673c39.6929-39.69288,108.779-39.69288,148.46685,0a105.10569,105.10569,0,0,1,0,148.46688l-81.17268,81.1727a34.8181,34.8181,0,0,0,24.72312,59.47189,35.2896,35.2896,0,0,0,24.72312-10.16377L646.62137,300.448c68.12423-68.12423,68.12423-178.96895,0-247.09319Z" transform="translate(0 -2.1342)"/><path d="M330.17838,518.14919,249.0057,599.32187A104.99926,104.99926,0,0,1,69.773,525.155a103.75377,103.75377,0,0,1,30.76578-74.1669l81.17268-81.17268a34.86611,34.86611,0,0,0-49.30812-49.30812L51.23068,401.68A174.81545,174.81545,0,0,0,298.457,648.90621l81.17268-81.17268a35.01219,35.01219,0,0,0-49.445-49.58281Z" transform="translate(0 -2.1342)"/><path d="M428.94281,221.75543,219.62247,431.07579a34.8181,34.8181,0,0,0,24.72312,59.47189,35.2896,35.2896,0,0,0,24.72312-10.16377L478.38905,271.06357a34.91454,34.91454,0,0,0-49.445-49.30812Z" transform="translate(0 -2.1342)"/></svg>