<svg xmlns="http://www.w3.org/2000/svg" width="86" height="40" viewBox="0 0 86 40">
    <defs>
        <linearGradient id="jb3psa2hpa" x1="10.923%" x2="90.645%" y1="56.635%" y2="40.873%">
            <stop offset="0%" stop-color="#67C2FB"/>
            <stop offset="100%" stop-color="#1A7FBD"/>
        </linearGradient>
    </defs>
    <g fill="none" fill-rule="evenodd">
        <g>
            <g>
                <path d="M0 0H86V40H0z" transform="translate(-1156 -284) translate(1156 284)"/>
                <path fill="url(#jb3psa2hpa)" fill-rule="nonzero" d="M43.153 0c2.358 0 4.274 1.861 4.416 4.197l10.425 7.184c.398-2.057 2.199-3.615 4.36-3.615 2.357 0 4.273 1.861 4.416 4.197l10.426 7.182c.399-2.056 2.199-3.614 4.359-3.614 2.451 0 4.445 2.005 4.445 4.47 0 2.464-1.994 4.469-4.445 4.469-2.16 0-3.96-1.558-4.36-3.614L66.77 28.04c-.143 2.335-2.059 4.196-4.416 4.196-2.161 0-3.962-1.558-4.36-3.614l-10.425 7.18C47.427 38.137 45.511 40 43.153 40L43 39.996l-.153.004c-2.287 0-4.157-1.751-4.399-3.988l-.017-.21-10.425-7.18c-.398 2.056-2.199 3.614-4.36 3.614-2.357 0-4.273-1.861-4.416-4.196L8.804 20.856c-.399 2.056-2.199 3.614-4.359 3.614C1.994 24.47 0 22.465 0 20c0-2.464 1.994-4.469 4.445-4.469 2.16 0 3.96 1.558 4.36 3.614l10.425-7.182c.143-2.336 2.059-4.197 4.416-4.197 2.161 0 3.962 1.558 4.36 3.615l10.425-7.184C38.573 1.86 40.489 0 42.847 0c.051 0 .102 0 .153.003L43.153 0zm4.358 20.856c-.398 2.057-2.198 3.614-4.358 3.614L43 24.466l-.153.004c-2.088 0-3.84-1.455-4.314-3.41l-.044-.204-10.03 6.91 10.03 6.908c.398-2.056 2.198-3.614 4.358-3.614.051 0 .102 0 .153.003l.153-.003c2.16 0 3.96 1.558 4.358 3.614l10.03-6.908-10.03-6.91zM28.006 13.09c-.399 2.057-2.199 3.615-4.36 3.615-2.159 0-3.96-1.558-4.358-3.614l-10.03 6.91 10.03 6.91c.398-2.057 2.2-3.616 4.358-3.616 2.161 0 3.962 1.559 4.36 3.616l10.029-6.91zm29.988 0L47.965 20l10.029 6.911c.398-2.057 2.199-3.616 4.36-3.616 2.159 0 3.96 1.559 4.358 3.616l10.03-6.91-10.03-6.91c-.399 2.056-2.2 3.614-4.358 3.614-2.161 0-3.961-1.558-4.36-3.615zM47.51 5.325c-.398 2.057-2.198 3.615-4.358 3.615L43 8.936l-.153.004c-2.088 0-3.84-1.456-4.314-3.41l-.044-.205-10.028 6.91 10.028 6.91c.398-2.055 2.198-3.614 4.358-3.614.051 0 .102 0 .153.003l.153-.003c2.16 0 3.96 1.559 4.358 3.615l10.028-6.91-10.028-6.91z" transform="translate(-1156 -284) translate(1156 284)"/>
            </g>
        </g>
    </g>
</svg>
