<svg xmlns="http://www.w3.org/2000/svg" width="80" height="80" viewBox="0 0 80 80">
    <g fill="none" fill-rule="evenodd">
        <g>
            <g>
                <g>
                    <g>
                        <path d="M0 0H80V80H0z" transform="translate(-420 -960) translate(90 960) translate(260) translate(70)"/>
                        <g fill-rule="nonzero" transform="translate(-420 -960) translate(90 960) translate(260) translate(70) translate(4 4)">
                            <path fill="#C5E2E7" d="M68.47 8.343l-.016-.032c-.06-.118-.128-.237-.202-.354-.048-.076-.1-.152-.153-.228-.19-.268-.415-.533-.676-.792-.957-.953-2.38-1.842-4.18-2.644-.107-.048-.215-.095-.324-.142C57.229 1.712 47.964.124 37.5.124h-.07C20.158.136 6.168 4.472 6.168 9.82v10.114c0 5.354 14.028 9.695 31.332 9.695 17.304 0 31.332-4.34 31.332-9.695V9.819c0-.501-.124-.995-.361-1.476z"/>
                            <ellipse cx="37.5" cy="9.82" fill="#FFF" rx="31.331" ry="9.695"/>
                            <path fill="#D1E1E4" d="M37.5.124h-.07v19.39h.07c17.304 0 31.332-4.34 31.332-9.695C68.832 4.465 54.804.124 37.5.124z"/>
                            <path fill="#A7D3D9" d="M37.5 19.514h-.07v10.114h.07c17.304 0 31.332-4.34 31.332-9.695V9.819c0 5.355-14.028 9.695-31.332 9.695z"/>
                            <path fill="#C5E2E7" d="M6.168 33.583c0 5.355 14.028 9.695 31.332 9.695 17.304 0 31.332-4.34 31.332-9.695V23.47c0 5.354-14.028 9.695-31.332 9.695-17.304 0-31.332-4.34-31.332-9.695v10.113z"/>
                            <path fill="#A7D3D9" d="M37.5 33.165h-.07v10.113h.07c17.304 0 31.332-4.34 31.332-9.695V23.47c0 5.354-14.028 9.695-31.332 9.695z"/>
                            <path fill="#C5E2E7" d="M6.168 47.233c0 5.355 14.028 9.695 31.332 9.695 17.304 0 31.332-4.34 31.332-9.695V37.12c0 5.354-14.028 9.695-31.332 9.695-17.304 0-31.332-4.34-31.332-9.695v10.113z"/>
                            <path fill="#A7D3D9" d="M37.5 46.815h-.07v10.113h.07c17.304 0 31.332-4.34 31.332-9.695V37.12c0 5.354-14.028 9.695-31.332 9.695z"/>
                            <path fill="#C5E2E7" d="M6.168 60.884c0 5.354 14.028 9.695 31.332 9.695 17.304 0 31.332-4.34 31.332-9.695V50.77c0 5.355-14.028 9.695-31.332 9.695-17.304 0-31.332-4.34-31.332-9.695v10.114z"/>
                            <path fill="#A7D3D9" d="M37.5 60.465h-.07V70.58h.07c17.304 0 31.332-4.34 31.332-9.695V50.77c0 5.355-14.028 9.695-31.332 9.695z"/>
                            <circle cx="17.145" cy="54.267" r="16.436" fill="#7DD496"/>
                            <path fill="#56CA7D" d="M17.144 37.83l-.105.003V70.7l.105.003c9.078 0 16.436-7.359 16.436-16.436S26.222 37.83 17.144 37.83z"/>
                            <path fill="#FFF" d="M26.483 47.783l-1.172 3.506c-1.45-3.73-5.077-6.381-9.314-6.381-5.509 0-9.991 4.482-9.991 9.991 0 5.51 4.482 9.991 9.991 9.991v-3.796c-3.415 0-6.194-2.78-6.194-6.195 0-3.416 2.779-6.195 6.194-6.195 2.725 0 5.043 1.77 5.87 4.22l-3.43-1.148-1.204 3.6 9.637 3.225 3.214-9.615-3.601-1.203z"/>
                            <path fill="#E3F4E2" d="M26.483 47.783l-1.172 3.506c-1.33-3.42-4.49-5.932-8.272-6.326v3.83c2.262.386 4.11 2 4.828 4.13l-3.43-1.147-1.204 3.6 9.637 3.225 3.214-9.615-3.601-1.203z"/>
                        </g>
                    </g>
                </g>
            </g>
        </g>
    </g>
</svg>
