<svg xmlns="http://www.w3.org/2000/svg" width="100" height="80" viewBox="0 0 100 80">
    <g fill="none" fill-rule="evenodd">
        <g>
            <g>
                <g>
                    <g>
                        <path d="M0 0H100V80H0z" transform="translate(-930 -960) translate(90 960) translate(780) translate(60)"/>
                        <g>
                            <g fill-rule="nonzero">
                                <path fill="#FFA400" d="M63.08 13.793c3.292-2.038 7.276-2.13 10.658-.247 3.29 1.833 5.254 5.148 5.254 8.872 0 3.722-1.965 7.039-5.254 8.87-.493.275-.998.508-1.513.698-3.015 1.118-6.333.797-9.145-.944-4.944-3.062-9.274-7.217-12.518-12.015-4.194-6.201-9.784-11.57-16.169-15.523L34.39 3.5C30.817 1.29 26.748.11 22.62.09c-3.88-.025-7.734.977-11.152 2.88C4.288 6.97 0 14.24 0 22.418c0 8.177 4.288 15.447 11.468 19.447 3.387 1.886 7.204 2.881 11.045 2.881h.108c4.127-.02 8.196-1.2 11.769-3.412l.007-.005c4.098-2.539 7.867-5.662 11.151-9.213-1.83-1.979-3.513-4.089-5.014-6.308-.792-1.171-1.649-2.303-2.563-3.39-2.831 3.369-6.217 6.309-9.954 8.624h-.001c-3.291 2.038-7.275 2.13-10.657.247-3.29-1.832-5.254-5.149-5.254-8.871 0-3.724 1.964-7.04 5.254-8.872 1.893-1.055 3.976-1.49 6.02-1.31 1.607.14 3.19.66 4.638 1.557 4.945 3.062 9.273 7.217 12.517 12.015 4.192 6.199 9.781 11.565 16.163 15.519l.01.007c3.573 2.212 7.642 3.392 11.768 3.412h.109c1.578 0 3.153-.168 4.695-.497 2.21-.472 4.354-1.274 6.35-2.384 7.18-4 11.468-11.27 11.468-19.447 0-8.178-4.288-15.448-11.469-19.448C76.21 1.067 72.361.072 68.475.09c-4.126.02-8.196 1.2-11.768 3.412l.007-.004-.007.004c-4.1 2.54-7.872 5.666-11.159 9.218 1.83 1.98 3.514 4.09 5.014 6.308.792 1.171 1.65 2.304 2.563 3.391 2.832-3.37 6.217-6.31 9.955-8.625z" transform="translate(-930 -960) translate(90 960) translate(780) translate(60) translate(6 17) translate(0 .266)"/>
                                <path fill="#00ACC2" d="M73.738 31.289c-.493.274-.998.507-1.513.697-3.015 1.118-6.333.797-9.145-.944-4.944-3.062-9.274-7.217-12.518-12.015-4.194-6.201-9.784-11.57-16.169-15.523C30.817 1.289 26.748.109 22.621.09c-3.88-.025-7.734.977-11.152 2.88-7.181 4 9.866 9.086 11.91 9.265 1.607.141 3.19.661 4.638 1.558 4.945 3.062 9.273 7.217 12.517 12.015 4.192 6.199 9.781 11.565 16.163 15.519l.01.007c3.573 2.212 7.642 3.392 11.768 3.412h.109c1.578 0 3.153-.168 4.695-.497 1.473-.314 2.167-2.903 2.082-7.766" transform="translate(-930 -960) translate(90 960) translate(780) translate(60) translate(6 17) translate(0 .266)"/>
                                <path fill="#2E81C2" d="M63.08 13.793c3.292-2.038 7.276-2.13 10.658-.247 3.29 1.833 5.254 5.148 5.254 8.872 0 3.722-1.965 7.039-5.254 8.87-.493.275-.998.508-1.513.698-1.362.505 2.662 2.77 2.96 5.459.362 3.264-2.752 6.984-1.906 6.804 2.21-.472 4.354-1.274 6.35-2.384 7.18-4 11.468-11.27 11.468-19.447 0-8.178-4.288-15.448-11.469-19.448C76.21 1.067 72.361.072 68.475.09c-4.126.02-8.196 1.2-11.768 3.412l.007-.004-.007.004c-1.57.973-3.09 2.03-4.555 3.165-2.361 1.83.855 2.721 0 7.127-.276 1.425 4.302 5.002 6.19 3.425 1.498-1.253 3.084-2.4 4.738-3.425z" transform="translate(-930 -960) translate(90 960) translate(780) translate(60) translate(6 17) translate(0 .266)"/>
                                <path fill="#FFC600" d="M29.06 1.077C26.973.435 24.805.1 22.62.089c-3.88-.024-7.734.978-11.152 2.881C4.288 6.97 0 14.24 0 22.418c0 8.177 4.288 15.447 11.468 19.447 3.387 1.886 7.204 2.881 11.045 2.881h.108c2.039-.01-3.05-2.403-3.572-5.374-.533-3.043 3.463-6.668 2.31-6.795-1.373-.151-2.73-.58-4-1.288-3.29-1.832-5.254-5.149-5.254-8.871 0-3.724 1.964-7.04 5.254-8.872 1.796-1 3.763-1.444 5.705-1.334.444.026.885.08 1.324.162.925.175 4.247-3.694 4.672-7.122.152-1.232.11-4.142 0-4.175z" transform="translate(-930 -960) translate(90 960) translate(780) translate(60) translate(6 17) translate(0 .266)"/>
                            </g>
                            <path fill="#FFF" d="M17.413 34.896L17.799 34.642 18.453 34.244 19.119 33.864 19.524 33.645 20 33.411 20.276 33.275 26.474 35.613 26.917 43.637 26.595 43.747 25.986 43.979 25.61 44.139 25.202 44.336 24.802 44.556 24.449 44.765 24.031 37.406z" transform="translate(-930 -960) translate(90 960) translate(780) translate(60) translate(6 17) rotate(-151 22.165 39.02)"/>
                            <text fill="#FFF" font-family="Manrope-Bold, Manrope" font-size="7.591" font-weight="bold" transform="translate(-930 -960) translate(90 960) translate(780) translate(60) translate(6 17) rotate(45 49.5 26)">
                                <tspan x="28.056" y="29">IMPLEMENT</tspan>
                            </text>
                            <g>
                                <path d="M11.82 38.954c-3.861-2.721-6.588-5.047-8.18-6.977-4.264-5.17-4.939-13.098-1.187-18.885 2.313-3.568 6.555-6.82 12.052-9.18" transform="translate(-930 -960) translate(90 960) translate(780) translate(60) translate(6 17) translate(8.857 1.414)"/>
                                <text fill="#FFF" font-family="Manrope-Bold, Manrope" font-size="7.591" font-weight="bold" letter-spacing="-.38" transform="translate(-930 -960) translate(90 960) translate(780) translate(60) translate(6 17) translate(8.857 1.414) rotate(-90 19.505 17.794)">
                                    <tspan x="2.7" y="20.794">EVALUATE</tspan>
                                </text>
                            </g>
                            <g>
                                <path d="M.526 5.63c5.465.688 8.813 1.373 10.046 2.055 5.792 3.205 5.7 7.71 5.758 12.805.04 3.487-1.148 5.28-2.721 8.406-1.148 2.279-3.756 3.721-7.827 4.328" transform="translate(-930 -960) translate(90 960) translate(780) translate(60) translate(6 17) rotate(-6 73.44 -603.833)"/>
                                <text fill="#FFF" font-family="Manrope-Bold, Manrope" font-size="7.591" font-weight="bold" letter-spacing="-.38" transform="translate(-930 -960) translate(90 960) translate(780) translate(60) translate(6 17) rotate(-6 73.44 -603.833)">
                                    <tspan x=".994" y="8.172">IMPROVE</tspan>
                                </text>
                            </g>
                            <text fill="#FFF" font-family="Manrope-Bold, Manrope" font-size="7.591" font-weight="bold" letter-spacing="-.38" transform="translate(-930 -960) translate(90 960) translate(780) translate(60) translate(6 17) rotate(-38 31.5 36)">
                                <tspan x="24.212" y="39">RUN</tspan>
                            </text>
                            <path fill="#FFF" d="M19.447 12.924L20.026 12.755 20.756 12.601 21.509 12.508 21.908 12.476 22.323 12.45 22.914 12.476 23.4 12.508 23.883 12.557 24.153 12.601 24.534 12.661 24.765 12.715 30.834 9.162 30.313 1.77 30.082 1.68 29.446 1.464 28.829 1.275 28.282 1.114 27.732.978 28.202 7.786zM57.068 18.562L57.805 17.891 58.453 17.353 59.214 16.75 53.096 13.673 53.708 5.739 53.129 6.157 52.493 6.654 51.258 7.616 50.622 15.333zM73.372 31.704L72.903 31.937 72.18 32.249 71.668 32.431 71.082 32.598 70.789 32.662 74.153 37.613 71.668 44.811 72.058 44.74 72.688 44.628 73.089 44.554 73.737 44.401 74.208 44.282 74.588 44.181 77.063 36.992z" transform="translate(-930 -960) translate(90 960) translate(780) translate(60) translate(6 17)"/>
                        </g>
                    </g>
                </g>
            </g>
        </g>
    </g>
</svg>
