<svg xmlns="http://www.w3.org/2000/svg" width="80" height="80" viewBox="0 0 80 80">
    <g fill="none" fill-rule="evenodd">
        <g>
            <g>
                <g>
                    <g>
                        <path d="M0 0H80V80H0z" transform="translate(-680 -960) translate(90 960) translate(520) translate(70)"/>
                        <g fill-rule="nonzero">
                            <path fill="#DCE1EB" d="M22.047 37.36c-.045 0-.09 0-.137-.004L2.126 36.121c-.753-.046-1.428-.477-1.789-1.139-.36-.661-.356-1.462.013-2.12.103-.185 2.597-4.582 7.345-8.416 6.417-5.181 13.876-6.862 21.571-4.86.64.167 1.169.612 1.443 1.212s.263 1.292-.03 1.883l-6.667 13.46c-.372.75-1.136 1.22-1.965 1.22z" transform="translate(-680 -960) translate(90 960) translate(520) translate(70) translate(4 4)"/>
                            <path fill="#9BA4B7" d="M37.996 71.86c-.36 0-.721-.09-1.049-.268-.661-.36-1.092-1.036-1.139-1.788L34.573 50.02c-.054-.881.424-1.71 1.215-2.102l13.46-6.667c.592-.293 1.283-.304 1.884-.03.6.274 1.045.804 1.211 1.442 2.003 7.696.323 15.155-4.859 21.572-3.834 4.748-8.23 7.24-8.416 7.345-.333.186-.702.28-1.072.28z" transform="translate(-680 -960) translate(90 960) translate(520) translate(70) translate(4 4)"/>
                            <path fill="#EDF1F9" d="M68.413 17.692L54.237 3.517c-.568-.568-1.4-.78-2.171-.552-9.49 2.807-17.28 7.21-23.155 13.084-1.226 1.226-2.403 2.555-3.498 3.948-3.185 4.05-5.846 8.839-7.908 14.233-1.313 3.438-2.382 7.12-3.177 10.947-1.39 6.682-1.464 11.472-1.467 11.672-.007.59.225 1.16.642 1.578.411.41.97.642 1.55.642h.028c.2-.003 4.99-.077 11.672-1.466 3.826-.796 7.51-1.865 10.948-3.179 5.393-2.061 10.182-4.721 14.23-7.906 1.395-1.096 2.724-2.273 3.95-3.499 5.875-5.875 10.277-13.665 13.084-23.155.228-.77.016-1.604-.552-2.172z" transform="translate(-680 -960) translate(90 960) translate(520) translate(70) translate(4 4)"/>
                            <path fill="#FFDF40" d="M28.251 54.3l-10.62-10.621c-.785-.784-2.03-.86-2.903-.175-.679.532-1.324 1.103-1.918 1.697-7.39 7.39-7.619 18.84-7.625 19.324-.007.59.224 1.16.642 1.578.411.411.97.642 1.55.642h.028c.484-.007 11.934-.235 19.324-7.625.594-.594 1.165-1.24 1.697-1.918.684-.873.61-2.119-.175-2.903z" transform="translate(-680 -960) translate(90 960) translate(520) translate(70) translate(4 4)"/>
                            <path fill="#2C4D98" d="M17.675 33.791l-6.516 6.517c-.411.41-.643.968-.643 1.55 0 .58.232 1.138.643 1.55L28.522 60.77c.411.411.969.642 1.55.642.582 0 1.14-.231 1.55-.642l6.516-6.516L17.675 33.79z" transform="translate(-680 -960) translate(90 960) translate(520) translate(70) translate(4 4)"/>
                            <path fill="#34CCDB" d="M46.12 32.498c-1.787 0-3.466-.695-4.73-1.959-2.607-2.607-2.607-6.85 0-9.457 1.264-1.263 2.943-1.96 4.73-1.96 1.786 0 3.466.697 4.729 1.96s1.959 2.942 1.959 4.729c0 1.786-.696 3.465-1.96 4.728-1.262 1.264-2.942 1.96-4.728 1.96z" transform="translate(-680 -960) translate(90 960) translate(520) translate(70) translate(4 4)"/>
                            <path fill="#2C4D98" d="M46.119 34.643c-2.36 0-4.577-.92-6.245-2.587-3.443-3.444-3.443-9.047 0-12.49 1.668-1.668 3.886-2.587 6.245-2.587 2.36 0 4.577.919 6.245 2.587 1.668 1.668 2.587 3.886 2.587 6.245s-.919 4.577-2.587 6.245c-1.668 1.668-3.886 2.587-6.245 2.587zm0-13.28c-1.188 0-2.305.463-3.145 1.303-1.733 1.734-1.733 4.555 0 6.29.84.84 1.957 1.302 3.145 1.302s2.305-.462 3.145-1.302c.84-.84 1.302-1.957 1.302-3.145s-.462-2.305-1.302-3.145c-.84-.84-1.957-1.303-3.145-1.303z" transform="translate(-680 -960) translate(90 960) translate(520) translate(70) translate(4 4)"/>
                            <path fill="#DCE1EB" d="M71.288.643c-.418-.419-.99-.654-1.579-.642-.325.003-8.074.134-17.643 2.964l16.899 16.899c2.83-9.569 2.96-17.318 2.964-17.644.008-.59-.223-1.16-.641-1.577z" transform="translate(-680 -960) translate(90 960) translate(520) translate(70) translate(4 4)"/>
                            <path fill="#C6CFE1" d="M68.413 17.692l-7.088-7.087-47.822 47.822c.411.41.969.642 1.55.642h.028c.2-.003 4.99-.077 11.672-1.466 3.826-.796 7.509-1.865 10.947-3.179 5.394-2.061 10.183-4.721 14.231-7.906 1.395-1.096 2.724-2.273 3.949-3.499 5.875-5.875 10.278-13.665 13.084-23.155.229-.77.017-1.604-.551-2.172z" transform="translate(-680 -960) translate(90 960) translate(520) translate(70) translate(4 4)"/>
                            <path fill="#FFC50D" d="M28.251 54.3l-5.31-5.311L5.827 66.103c.411.411.97.642 1.55.642h.028c.484-.006 11.934-.235 19.324-7.625.594-.594 1.165-1.24 1.696-1.918.685-.873.61-2.119-.174-2.903z" transform="translate(-680 -960) translate(90 960) translate(520) translate(70) translate(4 4)"/>
                            <path fill="#031C56" d="M27.907 44.023l-8.067 8.066 8.682 8.682c.411.411.969.642 1.55.642.582 0 1.14-.231 1.55-.642l6.516-6.516-10.231-10.232z" transform="translate(-680 -960) translate(90 960) translate(520) translate(70) translate(4 4)"/>
                            <path fill="#009BAA" d="M50.849 21.082l-9.459 9.457c1.264 1.264 2.943 1.96 4.73 1.96 1.786 0 3.466-.696 4.729-1.96 1.263-1.263 1.959-2.942 1.959-4.728-.001-1.786-.696-3.466-1.96-4.73z" transform="translate(-680 -960) translate(90 960) translate(520) translate(70) translate(4 4)"/>
                            <path fill="#031C56" d="M52.364 19.566l-3.1 3.1c.84.84 1.302 1.957 1.302 3.145s-.462 2.305-1.302 3.145c-.84.84-1.957 1.302-3.145 1.302s-2.305-.462-3.145-1.302v-.001l-3.1 3.1c1.668 1.669 3.886 2.588 6.245 2.588 2.36 0 4.577-.92 6.245-2.587 1.668-1.668 2.587-3.886 2.587-6.245 0-2.36-.92-4.577-2.587-6.245z" transform="translate(-680 -960) translate(90 960) translate(520) translate(70) translate(4 4)"/>
                            <path fill="#9BA4B7" d="M71.287.642L60.515 11.414l8.45 8.45c2.83-9.569 2.96-17.318 2.964-17.644.008-.59-.223-1.16-.642-1.578z" transform="translate(-680 -960) translate(90 960) translate(520) translate(70) translate(4 4)"/>
                        </g>
                    </g>
                </g>
            </g>
        </g>
    </g>
</svg>
