<svg xmlns="http://www.w3.org/2000/svg" width="80" height="80" viewBox="0 0 80 80">
    <g fill="none" fill-rule="evenodd">
        <g>
            <g>
                <path d="M0 0H80V80H0z" transform="translate(-433 -275) translate(433 275)"/>
                <g fill-rule="nonzero">
                    <path fill="#ECEFF1" d="M64.5 12H36c-.161 0-.32.025-.474.075l-.36.12c-.786.261-1.211 1.11-.95 1.897l.005.014 15.078 44.06-9.93 11.347c-.545.624-.481 1.571.142 2.116.274.24.625.37.989.37h24c4.142 0 7.5-3.357 7.5-7.499v-45c0-4.142-3.358-7.5-7.5-7.5z" transform="translate(-433 -275) translate(433 275) translate(4 4)"/>
                    <path fill="#1976D2" d="M52.365 57.879C52.122 57.344 51.588 57 51 57H36c-.828 0-1.5.672-1.5 1.5 0 .18.032.36.096.528l4.5 12c.186.494.618.854 1.137.948.088.015.177.023.267.024.432 0 .843-.187 1.128-.513l10.5-12c.388-.443.48-1.072.237-1.608z" transform="translate(-433 -275) translate(433 275) translate(4 4)"/>
                    <g fill="#455A64">
                        <path d="M22.594 6h-21c-.829 0-1.5-.672-1.5-1.5S.765 3 1.594 3h21c.828 0 1.5.672 1.5 1.5s-.672 1.5-1.5 1.5z" transform="translate(-433 -275) translate(433 275) translate(4 4) translate(41.906 27)"/>
                        <path d="M10.594 6c-.829 0-1.5-.672-1.5-1.5v-3c0-.828.671-1.5 1.5-1.5.828 0 1.5.672 1.5 1.5v3c0 .828-.672 1.5-1.5 1.5zM6.094 24c-.829 0-1.5-.673-1.499-1.501 0-.484.235-.939.629-1.22 6.57-4.668 11.37-14.184 11.37-16.779 0-.828.671-1.5 1.5-1.5.828 0 1.5.672 1.5 1.5 0 3.954-5.781 14.358-12.63 19.221-.254.181-.558.279-.87.279z" transform="translate(-433 -275) translate(433 275) translate(4 4) translate(41.906 27)"/>
                        <path d="M18.094 27c-.376 0-.737-.14-1.014-.393-1.086-.996-10.674-9.852-12.375-14.043-.313-.768.057-1.644.825-1.956.768-.312 1.643.057 1.956.825 1.227 3.024 8.808 10.38 11.625 12.957.613.557.658 1.506.1 2.12-.285.314-.692.492-1.117.49z" transform="translate(-433 -275) translate(433 275) translate(4 4) translate(41.906 27)"/>
                    </g>
                    <path fill="#2196F3" d="M52.419 58.014l-19.5-57C32.711.408 32.141 0 31.5 0h-24C3.358 0 0 3.358 0 7.5v45C0 56.642 3.358 60 7.5 60H51c.828 0 1.5-.672 1.5-1.5 0-.165-.027-.33-.081-.486z" transform="translate(-433 -275) translate(433 275) translate(4 4)"/>
                    <g fill="#FAFAFA">
                        <path d="M16.547 24c-.634 0-1.2-.399-1.413-.996L9.047 5.958 2.96 23.004c-.31.768-1.184 1.14-1.952.83-.725-.292-1.104-1.092-.871-1.838l7.5-21C8.004.216 8.933-.118 9.713.249c.328.154.592.419.747.747l7.5 21c.28.778-.123 1.635-.9 1.917-.165.058-.338.088-.513.087z" transform="translate(-433 -275) translate(433 275) translate(4 4) translate(11.953 18)"/>
                        <path d="M12.047 15h-6c-.829 0-1.5-.672-1.5-1.5s.671-1.5 1.5-1.5h6c.828 0 1.5.672 1.5 1.5s-.672 1.5-1.5 1.5z" transform="translate(-433 -275) translate(433 275) translate(4 4) translate(11.953 18)"/>
                    </g>
                </g>
            </g>
        </g>
    </g>
</svg>
