<svg xmlns="http://www.w3.org/2000/svg" width="62" height="40" viewBox="0 0 62 40">
    <defs>
        <linearGradient id="q9kqie654a" x1="8.615%" x2="93.16%" y1="64.253%" y2="30.033%">
            <stop offset="0%" stop-color="#FFD698"/>
            <stop offset="100%" stop-color="#FEB23E"/>
        </linearGradient>
    </defs>
    <g fill="none" fill-rule="evenodd">
        <g>
            <g>
                <path d="M0 0H62V40H0z" transform="translate(-839 -284) translate(839 284)"/>
                <g fill="url(#q9kqie654a)" fill-rule="nonzero" transform="translate(-839 -284) translate(839 284)">
                    <path d="M56.173 15.17c-2.117 0-3.901 1.38-4.551 3.28l-9.08-13.258c-.118-2.56-2.22-4.61-4.806-4.61-2.456 0-4.467 1.848-4.769 4.223h-4.116C28.549 2.43 26.538.582 24.082.582c-2.586 0-4.688 2.05-4.806 4.608l-9.08 13.258c-.65-1.899-2.434-3.278-4.55-3.278-2.663 0-4.829 2.167-4.829 4.829 0 2.663 2.166 4.829 4.83 4.829 2.117 0 3.9-1.378 4.55-3.278l9.08 13.258c.117 2.56 2.219 4.61 4.805 4.61 2.455 0 4.467-1.848 4.769-4.223h4.116c.302 2.375 2.312 4.223 4.769 4.223 2.588 0 4.688-2.05 4.806-4.61l9.08-13.259c.65 1.9 2.434 3.279 4.551 3.279 2.662 0 4.828-2.166 4.828-4.83 0-2.661-2.166-4.827-4.828-4.827zM30.91 29.098l1.743 4.886h-3.486l1.743-4.886zm-.03-18.108l-1.72-4.972h3.494l-1.774 4.972zm-1.713 8.405l1.695-4.75 1.643 4.75h-3.338zm3.486 1.212l-1.743 4.886-1.743-4.886h3.486zm9.85-1.212c-.302-2.375-2.312-4.223-4.767-4.223-1.97 0-3.662 1.188-4.413 2.882L31.51 12.82l1.895-5.309c.783 1.61 2.42 2.73 4.328 2.73 2.117 0 3.9-1.38 4.55-3.279L50.8 19.394h-8.298zM24.084 10.24c1.898 0 3.527-1.11 4.316-2.707l1.828 5.282-1.815 5.087c-.784-1.61-2.421-2.731-4.33-2.731-2.454 0-4.465 1.848-4.767 4.223h-8.298l8.514-12.432c.651 1.9 2.434 3.278 4.552 3.278zm-4.768 10.366c.302 2.375 2.313 4.223 4.768 4.223 1.908 0 3.545-1.121 4.33-2.73l1.853 5.194-1.854 5.197c-.784-1.61-2.421-2.731-4.33-2.731-2.117 0-3.9 1.38-4.55 3.279l-8.515-12.432h8.298zm18.42 9.154c-1.908 0-3.546 1.121-4.329 2.73l-1.853-5.195 1.853-5.196c.783 1.61 2.42 2.731 4.329 2.731 2.454 0 4.465-1.848 4.767-4.223h8.298L42.287 33.04c-.65-1.902-2.434-3.28-4.551-3.28z"/>
                </g>
            </g>
        </g>
    </g>
</svg>
