<svg xmlns="http://www.w3.org/2000/svg" width="50" height="40" viewBox="0 0 50 40">
    <defs>
        <linearGradient id="fi8q18nmza" x1="94.144%" x2="10.367%" y1="15.252%" y2="89.598%">
            <stop offset="0%" stop-color="#36D4B2"/>
            <stop offset="100%" stop-color="#47F5D0"/>
        </linearGradient>
    </defs>
    <g fill="none" fill-rule="evenodd">
        <g>
            <g>
                <path d="M0 0H50V40H0z" transform="translate(-514 -284) translate(514 284)"/>
                <g fill="url(#fi8q18nmza)" fill-rule="nonzero" transform="translate(-514 -284) translate(514 284) translate(.5)">
                    <path d="M43.984 15.136c-2.232 0-4.098 1.52-4.668 3.574L29.725 4.703C29.629 2.104 27.5.016 24.878.016c-2.621 0-4.75 2.088-4.846 4.686L10.44 18.71c-.57-2.053-2.436-3.574-4.67-3.574-2.681 0-4.863 2.182-4.863 4.864s2.182 4.864 4.864 4.864c2.233 0 4.1-1.52 4.669-3.574l9.593 14.006c.096 2.598 2.225 4.687 4.846 4.687 2.622 0 4.752-2.09 4.847-4.688l9.591-14.005c.57 2.053 2.436 3.574 4.668 3.574 2.682 0 4.865-2.182 4.865-4.864s-2.183-4.863-4.865-4.863zm-19.106 15.12c-2.233 0-4.098 1.52-4.668 3.573l-9.137-13.341h8.99c.25 2.45 2.3 4.376 4.815 4.376 2.515 0 4.567-1.926 4.816-4.376h8.99L29.548 33.83c-.57-2.054-2.437-3.574-4.67-3.574zm0-20.51c2.232 0 4.1-1.522 4.67-3.576l9.135 13.342h-8.99c-.25-2.45-2.3-4.376-4.816-4.376-2.515 0-4.566 1.925-4.815 4.376h-8.989L20.21 6.171c.57 2.053 2.436 3.574 4.668 3.574z"/>
                </g>
            </g>
        </g>
    </g>
</svg>
